# xmcd CD database file
#
# Track frame offsets:
#	151
#	16801
#	34214
#	49466
#	63729
#	84865
#	112152
#	126554
#	142337
#	157658
#	174075
#	190667
#
# Disc length: 2768 seconds
#
# Revision: 4
# Processed by: cddbd v1.5.2PL0 Copyright (c) Steve Scherf et al.
# Submitted via: CDex 1.60beta1
#
DISCID=a40ace0c
DTITLE=Heather Dale - The Road to Santiago
DYEAR=2005
DGENRE=Folk
TTITLE0=Hero
TTITLE1=The Greyhound
TTITLE2=The Road to Santiago
TTITLE3=Holly Ivy and Yew
TTITLE4=Hunter
TTITLE5=Adrift
TTITLE6=Black Fox
TTITLE7=Flowers of Bermuda
TTITLE8=Up into the pear tree
TTITLE9=Medusa
TTITLE10=Confession
TTITLE11=Sedna
EXTD=YEAR: 2005
EXTT0=
EXTT1=
EXTT2=
EXTT3=
EXTT4=
EXTT5=
EXTT6=
EXTT7=
EXTT8=
EXTT9=
EXTT10=
EXTT11=
PLAYORDER=
